<svg width="24" height="24" viewBox="0 0 24 24" fill="none" xmlns="http://www.w3.org/2000/svg">
<path d="M18 18H6C5.44772 18 5 18.4477 5 19C5 19.5523 5.44772 20 6 20H18C18.5523 20 19 19.5523 19 19C19 18.4477 18.5523 18 18 18Z" fill="#A0AEB6"/>
<path fill-rule="evenodd" clip-rule="evenodd" d="M9.00003 4C9.00003 3.44772 9.44774 3 10 3H14C14.5523 3 15 3.44772 15 4V8.96916H17C17.4043 8.96916 17.7688 9.21255 17.9237 9.58594C18.0786 9.95932 17.9935 10.3893 17.708 10.6754L15.2042 13.185L15.2021 13.1872L12.7062 15.7041C12.5184 15.8935 12.2628 16 11.9961 16C11.7295 16 11.4738 15.8935 11.2861 15.7041L6.29099 10.6743C6.00613 10.3879 5.92157 9.95822 6.07667 9.58522C6.23177 9.21221 6.59606 8.96916 7.00003 8.96916L9.00003 8.96916V4ZM11 5V9.96916C11 10.5214 10.5523 10.9692 10 10.9692H9.40494L10.2081 11.7768L11.9961 13.5798L13.7862 11.7746L14.5898 10.9692H14C13.4477 10.9692 13 10.5214 13 9.96916V5H11Z" fill="#A0AEB6"/>
</svg>
