<svg width="228" height="20" viewBox="0 0 228 20" fill="none" xmlns="http://www.w3.org/2000/svg">
<g clip-path="url(#clip0_350_22217)">
<path d="M97.8845 0H90.3398V18.7462H97.8845V0Z" fill="white"/>
<path d="M29.0977 0V3.94416H37.9194V18.7462H45.4845V3.94416H54.3062V0H29.0977Z" fill="white"/>
<path d="M24.6341 3.94416V0H0V15.1574C0 17.1371 1.62073 18.7411 3.61587 18.7411H24.6341V14.7919H7.56512V11.3401H24.6341V7.39594H7.56512V3.94416H24.6341Z" fill="white"/>
<path d="M77.0561 10H68.1523L78.364 20H87.2677L77.0561 10Z" fill="white"/>
<path d="M81.0072 0H58.1016V18.7462H65.6667V3.94416H77.058V10H84.6282V3.57868C84.6282 1.59898 83.0075 0 81.0072 0Z" fill="white"/>
<path d="M105.325 4.20312H108.351V5.11175H106.351V6.53307H108.182V7.4417H106.351V9.06099H108.362V9.96962H105.32V4.20312H105.325Z" fill="white"/>
<path d="M109.344 3.77148H110.328V9.96945H109.344V3.77148Z" fill="white"/>
<path d="M112.06 7.42644C112.106 6.85791 112.383 6.42644 112.932 6.42644C113.48 6.42644 113.701 6.88837 113.732 7.42644H112.055H112.06ZM114.393 8.83253C114.024 9.06096 113.614 9.25893 113.137 9.25893C112.526 9.25893 112.101 8.86807 112.06 8.18279H114.675C114.675 6.69548 114.28 5.61426 112.875 5.61426C111.701 5.61426 111.121 6.62949 111.121 7.86299C111.121 9.25893 111.849 10.0711 113.096 10.0711C113.624 10.0711 114.034 9.95436 114.398 9.73101V8.83253H114.393Z" fill="white"/>
<path d="M117.904 6.63456C117.729 6.54319 117.534 6.4772 117.237 6.4772C116.627 6.4772 116.237 7.02035 116.237 7.82238C116.237 8.62441 116.565 9.20817 117.257 9.20817C117.534 9.20817 117.847 9.09141 118.016 9.0102L118.063 9.92898C117.775 10.0254 117.483 10.0711 117.078 10.0711C115.837 10.0711 115.211 9.12187 115.211 7.82238C115.211 6.59395 115.857 5.61426 117.042 5.61426C117.437 5.61426 117.724 5.66502 117.996 5.75639L117.909 6.63456H117.904Z" fill="white"/>
<path d="M119.033 6.52275H118.305V5.71056H119.033V4.85777L120.018 4.50244V5.71056H120.89V6.52275H120.018V8.50752C120.018 8.873 120.105 9.20802 120.479 9.20802C120.654 9.20802 120.823 9.16742 120.926 9.09127L120.956 9.96437C120.751 10.0304 120.526 10.0659 120.228 10.0659C119.459 10.0659 119.033 9.52782 119.033 8.68518V6.52275V6.52275Z" fill="white"/>
<path d="M121.59 5.71578H122.462V6.68025H122.477C122.523 6.28431 122.923 5.61426 123.513 5.61426C123.611 5.61426 123.713 5.61426 123.816 5.64471V6.76147C123.729 6.70563 123.549 6.6701 123.375 6.6701C122.575 6.6701 122.575 7.79192 122.575 8.40614V9.96959H121.59V5.71578Z" fill="white"/>
<path d="M125.078 7.74121C125.078 7.10669 125.386 6.47725 126.027 6.47725C126.668 6.47725 126.981 7.09147 126.981 7.74121C126.981 8.45187 126.781 9.21329 126.027 9.21329C125.273 9.21329 125.078 8.4468 125.078 7.74121V7.74121ZM124.047 7.87319C124.047 9.09654 124.775 10.0712 126.022 10.0712C127.268 10.0712 128.006 9.09654 128.006 7.87319C128.006 6.4671 127.15 5.61938 126.022 5.61938C124.893 5.61938 124.047 6.47218 124.047 7.87319V7.87319Z" fill="white"/>
<path d="M128.781 5.71578H129.715V6.29446H129.73C130.038 5.80715 130.458 5.61426 130.971 5.61426C131.869 5.61426 132.259 6.32492 132.259 7.28431V9.96959H131.274V7.69548C131.274 7.17771 131.269 6.47213 130.633 6.47213C129.92 6.47213 129.766 7.34015 129.766 7.88329V9.96451H128.781V5.71578V5.71578Z" fill="white"/>
<path d="M133.289 5.71579H134.274V9.96959H133.289V5.71579ZM133.289 3.8833H134.274V4.93914H133.289V3.8833Z" fill="white"/>
<path d="M137.768 6.63456C137.594 6.54319 137.399 6.4772 137.101 6.4772C136.491 6.4772 136.101 7.02035 136.101 7.82238C136.101 8.62441 136.435 9.20817 137.122 9.20817C137.399 9.20817 137.712 9.09141 137.876 9.0102L137.922 9.92898C137.635 10.0254 137.342 10.0711 136.937 10.0711C135.696 10.0711 135.07 9.12187 135.07 7.82238C135.07 6.59395 135.717 5.61426 136.901 5.61426C137.296 5.61426 137.583 5.66502 137.855 5.75639L137.768 6.63456Z" fill="white"/>
<path d="M140.82 6.60923C140.517 6.49248 140.296 6.42649 139.937 6.42649C139.671 6.42649 139.358 6.53309 139.358 6.89857C139.358 7.57878 141.071 7.1473 141.071 8.68537C141.071 9.67522 140.286 10.0712 139.486 10.0712C139.112 10.0712 138.727 9.99502 138.368 9.88842L138.429 8.97979C138.737 9.15238 139.06 9.25898 139.399 9.25898C139.65 9.25898 140.045 9.15238 140.045 8.74121C140.045 7.90872 138.332 8.47725 138.332 6.93918C138.332 6.0204 139.045 5.61938 139.814 5.61938C140.276 5.61938 140.578 5.7006 140.886 5.77675L140.82 6.60923V6.60923Z" fill="white"/>
<path d="M144.571 8.74121C144.571 8.08639 145.223 8.00517 145.664 8.00517H146.09C146.09 8.33512 146.043 8.63969 145.884 8.88334C145.731 9.11685 145.495 9.26405 145.192 9.26405C144.838 9.26405 144.566 9.10669 144.566 8.74629L144.571 8.74121ZM144.074 6.88842C144.402 6.60923 144.823 6.42649 145.243 6.42649C145.823 6.42649 146.095 6.65999 146.095 7.34527H145.551C145.141 7.34527 144.653 7.38588 144.279 7.594C143.905 7.80213 143.633 8.17268 143.633 8.8072C143.633 9.61431 144.284 10.0712 144.956 10.0712C145.402 10.0712 145.895 9.8072 146.125 9.33512H146.141C146.151 9.4671 146.151 9.74629 146.187 9.96964H147.054C147.033 9.63969 147.018 9.3402 147.013 9.0204C147.008 8.70568 146.997 8.38588 146.997 7.95441V7.41126C146.997 6.15746 146.52 5.61938 145.366 5.61938C144.946 5.61938 144.433 5.74121 144.053 5.93918L144.084 6.88842H144.074Z" fill="white"/>
<path d="M147.957 5.71578H148.89V6.29446H148.906C149.214 5.80715 149.634 5.61426 150.147 5.61426C151.045 5.61426 151.434 6.32492 151.434 7.28431V9.96959H150.45V7.69548C150.45 7.17771 150.445 6.47213 149.809 6.47213C149.096 6.47213 148.942 7.34015 148.942 7.88329V9.96451H147.957V5.71578V5.71578Z" fill="white"/>
<path d="M153.238 7.82732C153.238 7.25879 153.412 6.47199 154.053 6.47199C154.695 6.47199 154.936 7.23341 154.936 7.82732C154.936 8.42123 154.725 9.20803 154.069 9.20803C153.412 9.20803 153.238 8.41615 153.238 7.82732ZM154.971 9.96945H155.925V3.77148H154.941V6.20803H154.925C154.633 5.80194 154.284 5.61412 153.792 5.61412C152.633 5.61412 152.207 6.65473 152.207 7.82732C152.207 8.99991 152.633 10.0659 153.792 10.0659C154.253 10.0659 154.659 9.89839 154.951 9.48722H154.966V9.96438L154.971 9.96945Z" fill="white"/>
<path d="M159.994 5.11175H158.527V4.20312H162.492V5.11175H161.025V9.96962H159.999V5.11175H159.994Z" fill="white"/>
<path d="M162.944 7.42644C162.99 6.85791 163.267 6.42644 163.821 6.42644C164.375 6.42644 164.59 6.88837 164.621 7.42644H162.944ZM165.277 8.83253C164.908 9.06096 164.498 9.25893 164.021 9.25893C163.41 9.25893 162.985 8.86807 162.939 8.18279H165.554C165.554 6.69548 165.159 5.61426 163.754 5.61426C162.58 5.61426 162 6.62949 162 7.86299C162 9.25893 162.728 10.0711 163.975 10.0711C164.503 10.0711 164.913 9.95436 165.277 9.73101V8.83253V8.83253Z" fill="white"/>
<path d="M166.355 3.77148H167.34V9.96945H166.355V3.77148Z" fill="white"/>
<path d="M169.075 7.42644C169.116 6.85791 169.398 6.42644 169.947 6.42644C170.496 6.42644 170.717 6.88837 170.747 7.42644H169.075ZM171.409 8.83253C171.045 9.06096 170.629 9.25893 170.152 9.25893C169.542 9.25893 169.116 8.86807 169.075 8.18279H171.691C171.691 6.69548 171.296 5.61426 169.891 5.61426C168.716 5.61426 168.137 6.62949 168.137 7.86299C168.137 9.25893 168.865 10.0711 170.111 10.0711C170.64 10.0711 171.05 9.95436 171.409 9.73101V8.83253Z" fill="white"/>
<path d="M174.913 6.63456C174.738 6.54319 174.543 6.4772 174.246 6.4772C173.636 6.4772 173.246 7.02035 173.246 7.82238C173.246 8.62441 173.574 9.20817 174.266 9.20817C174.543 9.20817 174.856 9.09141 175.025 9.0102L175.067 9.92898C174.779 10.0254 174.487 10.0711 174.082 10.0711C172.841 10.0711 172.215 9.12187 172.215 7.82238C172.215 6.59395 172.861 5.61426 174.046 5.61426C174.441 5.61426 174.728 5.66502 175 5.75639L174.913 6.63456Z" fill="white"/>
<path d="M176.506 7.74121C176.506 7.10669 176.814 6.47725 177.455 6.47725C178.096 6.47725 178.409 7.09147 178.409 7.74121C178.409 8.45187 178.209 9.21329 177.455 9.21329C176.701 9.21329 176.506 8.4468 176.506 7.74121V7.74121ZM175.48 7.87319C175.48 9.09654 176.209 10.0712 177.455 10.0712C178.701 10.0712 179.44 9.09654 179.44 7.87319C179.44 6.4671 178.583 5.61938 177.455 5.61938C176.327 5.61938 175.48 6.47218 175.48 7.87319V7.87319Z" fill="white"/>
<path d="M180.195 5.71578H181.113V6.30969H181.129C181.437 5.78685 181.883 5.61426 182.252 5.61426C182.78 5.61426 183.155 5.83761 183.37 6.36553C183.596 5.85284 184.088 5.61426 184.555 5.61426C185.488 5.61426 185.75 6.33507 185.75 7.28431V9.96959H184.765V7.43152C184.765 7.03558 184.765 6.47213 184.201 6.47213C183.55 6.47213 183.468 7.3503 183.468 7.9036V9.96959H182.483V7.43152C182.483 7.03558 182.483 6.47213 181.919 6.47213C181.267 6.47213 181.185 7.3503 181.185 7.9036V9.96959H180.2V5.71578H180.195Z" fill="white"/>
<path d="M186.723 5.71578H187.641V6.30969H187.656C187.964 5.78685 188.415 5.61426 188.779 5.61426C189.308 5.61426 189.682 5.83761 189.897 6.36553C190.123 5.85284 190.615 5.61426 191.082 5.61426C192.016 5.61426 192.277 6.33507 192.277 7.28431V9.96959H191.293V7.43152C191.293 7.03558 191.293 6.47213 190.728 6.47213C190.077 6.47213 189.995 7.3503 189.995 7.9036V9.96959H189.01V7.43152C189.01 7.03558 189.01 6.47213 188.446 6.47213C187.789 6.47213 187.713 7.3503 187.713 7.9036V9.96959H186.728V5.71578H186.723Z" fill="white"/>
<path d="M196.739 9.96958H195.806V9.3909H195.79C195.488 9.80206 195.062 10.066 194.549 10.066C193.652 10.066 193.262 9.35536 193.262 8.39597V5.71069H194.246V7.9848C194.246 8.50257 194.252 9.20815 194.888 9.20815C195.601 9.20815 195.754 8.34013 195.754 7.79699V5.71577H196.739V9.96958V9.96958Z" fill="white"/>
<path d="M197.754 5.71578H198.687V6.29446H198.703C199.01 5.80715 199.431 5.61426 199.944 5.61426C200.841 5.61426 201.231 6.32492 201.231 7.28431V9.96959H200.247V7.69548C200.247 7.17771 200.236 6.47213 199.605 6.47213C198.893 6.47213 198.739 7.34015 198.739 7.88329V9.96451H197.754V5.71578V5.71578Z" fill="white"/>
<path d="M202.262 5.71579H203.246V9.96959H202.262V5.71579ZM202.262 3.8833H203.246V4.93914H202.262V3.8833Z" fill="white"/>
<path d="M206.736 6.63456C206.561 6.54319 206.366 6.4772 206.069 6.4772C205.459 6.4772 205.069 7.02035 205.069 7.82238C205.069 8.62441 205.397 9.20817 206.089 9.20817C206.371 9.20817 206.679 9.09141 206.848 9.0102L206.895 9.92898C206.607 10.0254 206.315 10.0711 205.91 10.0711C204.669 10.0711 204.043 9.12187 204.043 7.82238C204.043 6.59395 204.689 5.61426 205.874 5.61426C206.269 5.61426 206.556 5.66502 206.828 5.75639L206.741 6.63456H206.736Z" fill="white"/>
<path d="M208.243 8.74121C208.243 8.08639 208.895 8.00517 209.336 8.00517H209.761C209.761 8.33512 209.72 8.63969 209.556 8.88334C209.402 9.11685 209.166 9.26405 208.869 9.26405C208.515 9.26405 208.243 9.10669 208.243 8.74629V8.74121ZM207.746 6.88842C208.074 6.60923 208.495 6.42649 208.915 6.42649C209.495 6.42649 209.767 6.65999 209.767 7.34527H209.223C208.813 7.34527 208.325 7.38588 207.951 7.594C207.577 7.80213 207.305 8.17268 207.305 8.8072C207.305 9.61431 207.956 10.0712 208.628 10.0712C209.074 10.0712 209.567 9.8072 209.797 9.33512H209.813C209.823 9.4671 209.823 9.74629 209.859 9.96964H210.726C210.705 9.63969 210.69 9.3402 210.679 9.0204C210.674 8.70568 210.664 8.38588 210.664 7.95441V7.41126C210.664 6.15746 210.187 5.61938 209.033 5.61938C208.613 5.61938 208.1 5.74121 207.72 5.93918L207.751 6.88842H207.746Z" fill="white"/>
<path d="M211.951 6.52275H211.223V5.71056H211.951V4.85777L212.936 4.50244V5.71056H213.813V6.52275H212.936V8.50752C212.936 8.873 213.023 9.20802 213.397 9.20802C213.572 9.20802 213.741 9.16742 213.844 9.09127L213.874 9.96437C213.669 10.0304 213.443 10.0659 213.146 10.0659C212.377 10.0659 211.951 9.52782 211.951 8.68518V6.52275V6.52275Z" fill="white"/>
<path d="M214.508 5.71579H215.493V9.96959H214.508V5.71579ZM214.508 3.8833H215.493V4.93914H214.508V3.8833Z" fill="white"/>
<path d="M217.316 7.74121C217.316 7.10669 217.624 6.47725 218.265 6.47725C218.906 6.47725 219.219 7.09147 219.219 7.74121C219.219 8.45187 219.019 9.21329 218.265 9.21329C217.511 9.21329 217.316 8.4468 217.316 7.74121V7.74121ZM216.285 7.87319C216.285 9.09654 217.013 10.0712 218.26 10.0712C219.506 10.0712 220.245 9.09654 220.245 7.87319C220.245 6.4671 219.383 5.61938 218.26 5.61938C217.137 5.61938 216.285 6.47218 216.285 7.87319V7.87319Z" fill="white"/>
<path d="M221.016 5.71578H221.949V6.29446H221.964C222.272 5.80715 222.693 5.61426 223.206 5.61426C224.103 5.61426 224.488 6.32492 224.488 7.28431V9.96959H223.503V7.69548C223.503 7.17771 223.498 6.47213 222.867 6.47213C222.154 6.47213 222 7.34015 222 7.88329V9.96451H221.016V5.71578V5.71578Z" fill="white"/>
<path d="M227.753 6.60923C227.451 6.49248 227.23 6.42649 226.871 6.42649C226.604 6.42649 226.291 6.53309 226.291 6.89857C226.291 7.57878 228.004 7.1473 228.004 8.68537C228.004 9.67522 227.22 10.0712 226.42 10.0712C226.045 10.0712 225.666 9.99502 225.302 9.88842L225.358 8.97979C225.666 9.15238 225.989 9.25898 226.327 9.25898C226.579 9.25898 226.974 9.15238 226.974 8.74121C226.974 7.90872 225.266 8.47725 225.266 6.93918C225.266 6.0204 225.979 5.61938 226.748 5.61938C227.209 5.61938 227.512 5.7006 227.82 5.77675L227.753 6.60923V6.60923Z" fill="white"/>
<path d="M106.265 13.8882H106.604C107.117 13.8882 107.691 13.9441 107.691 14.6395C107.691 15.3349 107.112 15.4415 106.604 15.4415H106.265V13.8882V13.8882ZM105.24 18.7461H106.265V16.3501H106.594C107.024 16.3501 107.158 16.5177 107.306 16.9441L107.922 18.7461H109.066L108.245 16.4923C108.142 16.2334 107.978 15.9237 107.701 15.8984V15.8831C108.353 15.7816 108.758 15.2232 108.758 14.543C108.758 12.939 107.445 12.9796 106.342 12.9796H105.234V18.7461H105.24Z" fill="white"/>
<path d="M110.424 16.198C110.47 15.6294 110.747 15.198 111.301 15.198C111.855 15.198 112.071 15.6599 112.101 16.198H110.424ZM112.758 17.6041C112.389 17.8376 111.978 18.0355 111.501 18.0355C110.891 18.0355 110.465 17.6447 110.419 16.9594H113.035C113.035 15.4721 112.64 14.3909 111.235 14.3909C110.06 14.3909 109.48 15.4061 109.48 16.6396C109.48 18.0355 110.209 18.8426 111.455 18.8426C111.983 18.8426 112.394 18.7259 112.753 18.5025V17.6041H112.758Z" fill="white"/>
<path d="M116.055 15.3807C115.753 15.264 115.532 15.198 115.173 15.198C114.911 15.198 114.593 15.3046 114.593 15.6701C114.593 16.3503 116.306 15.9188 116.306 17.4569C116.306 18.4467 115.522 18.8426 114.722 18.8426C114.347 18.8426 113.963 18.7665 113.604 18.6599L113.66 17.7513C113.968 17.9239 114.291 18.0305 114.629 18.0305C114.881 18.0305 115.276 17.9239 115.276 17.5127C115.276 16.6802 113.562 17.2487 113.562 15.7107C113.562 14.7919 114.275 14.3909 115.045 14.3909C115.506 14.3909 115.809 14.4721 116.117 14.5482L116.05 15.3807H116.055Z" fill="white"/>
<path d="M117.768 16.198C117.814 15.6294 118.091 15.198 118.64 15.198C119.189 15.198 119.409 15.6599 119.44 16.198H117.763H117.768ZM120.102 17.6041C119.732 17.8376 119.322 18.0355 118.845 18.0355C118.235 18.0355 117.809 17.6447 117.763 16.9594H120.379C120.379 15.4721 119.984 14.3909 118.578 14.3909C117.404 14.3909 116.824 15.4061 116.824 16.6396C116.824 18.0355 117.553 18.8426 118.799 18.8426C119.327 18.8426 119.737 18.7259 120.102 18.5025V17.6041Z" fill="white"/>
<path d="M121.853 17.5127C121.853 16.8579 122.504 16.7767 122.945 16.7767H123.371C123.371 17.1066 123.325 17.4112 123.166 17.6498C123.012 17.8782 122.776 18.0305 122.473 18.0305C122.119 18.0305 121.848 17.8731 121.848 17.5127H121.853ZM121.355 15.6599C121.683 15.3807 122.104 15.198 122.525 15.198C123.104 15.198 123.376 15.4315 123.376 16.1168H122.832C122.422 16.1168 121.935 16.1574 121.56 16.3655C121.186 16.5736 120.914 16.9442 120.914 17.5787C120.914 18.3858 121.565 18.8426 122.237 18.8426C122.684 18.8426 123.176 18.5787 123.407 18.1066H123.422C123.427 18.2386 123.427 18.5178 123.463 18.7411H124.33C124.309 18.4112 124.294 18.1117 124.284 17.7919C124.279 17.4772 124.268 17.1574 124.268 16.7259V16.1827C124.268 14.9289 123.791 14.3909 122.637 14.3909C122.217 14.3909 121.704 14.5127 121.324 14.7107L121.355 15.6599V15.6599Z" fill="white"/>
<path d="M125.262 14.4873H126.134V15.4517H126.149C126.195 15.0558 126.595 14.3857 127.185 14.3857C127.283 14.3857 127.385 14.3857 127.488 14.4162V15.533C127.4 15.4771 127.221 15.4416 127.047 15.4416C126.246 15.4416 126.246 16.5634 126.246 17.1776V18.7411H125.262V14.4873V14.4873Z" fill="white"/>
<path d="M130.417 15.4061C130.242 15.3148 130.047 15.2488 129.75 15.2488C129.139 15.2488 128.75 15.7919 128.75 16.594C128.75 17.396 129.078 17.9848 129.77 17.9848C130.047 17.9848 130.36 17.8681 130.524 17.7869L130.57 18.7056C130.283 18.8072 129.991 18.8478 129.586 18.8478C128.344 18.8478 127.719 17.8985 127.719 16.599C127.719 15.3706 128.365 14.396 129.545 14.396C129.94 14.396 130.227 14.4468 130.499 14.5381L130.411 15.4163L130.417 15.4061Z" fill="white"/>
<path d="M131.228 12.5483H132.213V15.0661H132.228C132.479 14.6549 132.905 14.3909 133.418 14.3909C134.315 14.3909 134.7 15.1016 134.7 16.061V18.7463H133.715V16.4721C133.715 15.9544 133.71 15.2488 133.074 15.2488C132.361 15.2488 132.207 16.1168 132.207 16.66V18.7412H131.223V12.5432L131.228 12.5483Z" fill="white"/>
<path d="M137.758 12.9797H138.784V18.7462H137.758V12.9797Z" fill="white"/>
<path d="M139.797 14.4873H140.73V15.066H140.746C141.053 14.5787 141.474 14.3909 141.987 14.3909C142.884 14.3909 143.274 15.1015 143.274 16.0609V18.7462H142.29V16.4721C142.29 15.9543 142.284 15.2487 141.648 15.2487C140.935 15.2487 140.782 16.1168 140.782 16.6599V18.7411H139.797V14.4873V14.4873Z" fill="white"/>
<path d="M146.532 15.3807C146.229 15.264 146.009 15.198 145.65 15.198C145.383 15.198 145.07 15.3046 145.07 15.6701C145.07 16.3503 146.783 15.9188 146.783 17.4569C146.783 18.4467 145.998 18.8426 145.198 18.8426C144.824 18.8426 144.439 18.7665 144.08 18.6599L144.137 17.7513C144.444 17.9239 144.767 18.0305 145.106 18.0305C145.357 18.0305 145.752 17.9239 145.752 17.5127C145.752 16.6802 144.039 17.2487 144.039 15.7107C144.039 14.7919 144.752 14.3909 145.521 14.3909C145.983 14.3909 146.286 14.4721 146.593 14.5482L146.527 15.3807H146.532Z" fill="white"/>
<path d="M147.873 15.2994H147.145V14.4923H147.873V13.6395L148.858 13.2842V14.4923H149.735V15.2994H148.858V17.2842C148.858 17.6446 148.945 17.9847 149.319 17.9847C149.494 17.9847 149.663 17.9441 149.765 17.8679L149.796 18.741C149.591 18.807 149.365 18.8375 149.068 18.8375C148.299 18.8375 147.873 18.2994 147.873 17.4568V15.2943V15.2994Z" fill="white"/>
<path d="M150.426 14.4873H151.411V18.7411H150.426V14.4873ZM150.426 12.6548H151.411V13.7106H150.426V12.6548Z" fill="white"/>
<path d="M152.771 15.2994H152.043V14.4923H152.771V13.6395L153.756 13.2842V14.4923H154.633V15.2994H153.756V17.2842C153.756 17.6446 153.843 17.9847 154.218 17.9847C154.392 17.9847 154.561 17.9441 154.664 17.8679L154.695 18.741C154.489 18.807 154.264 18.8375 153.966 18.8375C153.197 18.8375 152.771 18.2994 152.771 17.4568V15.2943V15.2994Z" fill="white"/>
<path d="M158.782 18.7462H157.849V18.1675H157.833C157.531 18.5787 157.105 18.8426 156.592 18.8426C155.694 18.8426 155.305 18.132 155.305 17.1726V14.4873H156.289V16.7614C156.289 17.2843 156.295 17.9848 156.931 17.9848C157.643 17.9848 157.797 17.1167 157.797 16.5685V14.4873H158.782V18.7411V18.7462Z" fill="white"/>
<path d="M160.115 15.2994H159.387V14.4923H160.115V13.6395L161.1 13.2842V14.4923H161.977V15.2994H161.1V17.2842C161.1 17.6446 161.187 17.9847 161.561 17.9847C161.736 17.9847 161.905 17.9441 162.008 17.8679L162.038 18.741C161.833 18.807 161.608 18.8375 161.31 18.8375C160.541 18.8375 160.115 18.2994 160.115 17.4568V15.2943V15.2994Z" fill="white"/>
<path d="M163.346 16.198C163.392 15.6294 163.669 15.198 164.218 15.198C164.767 15.198 164.987 15.6599 165.018 16.198H163.346ZM165.68 17.6041C165.31 17.8376 164.9 18.0355 164.423 18.0355C163.813 18.0355 163.387 17.6447 163.341 16.9594H165.957C165.957 15.4721 165.562 14.3909 164.156 14.3909C162.982 14.3909 162.402 15.4061 162.402 16.6396C162.402 18.0355 163.131 18.8426 164.377 18.8426C164.905 18.8426 165.316 18.7259 165.68 18.5025V17.6041V17.6041Z" fill="white"/>
</g>
<defs>
<clipPath id="clip0_350_22217">
<rect width="228" height="20" fill="white"/>
</clipPath>
</defs>
</svg>
